<mxfile host="app.diagrams.net" agent="Mozilla/5.0 (Windows NT 10.0; Win64; x64) AppleWebKit/537.36 (KHTML, like Gecko) Chrome/134.0.0.0 Safari/537.36" version="26.2.5">
  <diagram name="PÃ¡gina-1" id="W1SlZQGq6ydJywhHBB3l">
    <mxGraphModel dx="2255" dy="785" grid="1" gridSize="10" guides="1" tooltips="1" connect="1" arrows="1" fold="1" page="1" pageScale="1" pageWidth="827" pageHeight="1169" math="0" shadow="0">
      <root>
        <mxCell id="0" />
        <mxCell id="1" parent="0" />
        <mxCell id="Zq42ExUFTo6MCloS8ueM-22" value="" style="group" parent="1" vertex="1" connectable="0">
          <mxGeometry x="-240" y="30" width="640" height="340" as="geometry" />
        </mxCell>
        <mxCell id="Zq42ExUFTo6MCloS8ueM-21" value="" style="rounded=0;whiteSpace=wrap;html=1;" parent="Zq42ExUFTo6MCloS8ueM-22" vertex="1">
          <mxGeometry width="640" height="340" as="geometry" />
        </mxCell>
        <mxCell id="FwsmiJd8IDW5yg_aFgd4-38" value="" style="edgeStyle=orthogonalEdgeStyle;rounded=0;orthogonalLoop=1;jettySize=auto;html=1;" parent="Zq42ExUFTo6MCloS8ueM-22" source="FwsmiJd8IDW5yg_aFgd4-6" target="FwsmiJd8IDW5yg_aFgd4-36" edge="1">
          <mxGeometry relative="1" as="geometry" />
        </mxCell>
        <mxCell id="FwsmiJd8IDW5yg_aFgd4-6" value="uc_MonitorStove" style="ellipse;whiteSpace=wrap;html=1;" parent="Zq42ExUFTo6MCloS8ueM-22" vertex="1">
          <mxGeometry x="250" y="70" width="140" height="70" as="geometry" />
        </mxCell>
        <mxCell id="FwsmiJd8IDW5yg_aFgd4-14" value="" style="edgeStyle=orthogonalEdgeStyle;rounded=0;orthogonalLoop=1;jettySize=auto;html=1;" parent="Zq42ExUFTo6MCloS8ueM-22" source="FwsmiJd8IDW5yg_aFgd4-7" target="FwsmiJd8IDW5yg_aFgd4-6" edge="1">
          <mxGeometry relative="1" as="geometry" />
        </mxCell>
        <mxCell id="FwsmiJd8IDW5yg_aFgd4-7" value="LightSensing" style="shape=umlActor;verticalLabelPosition=bottom;verticalAlign=top;html=1;" parent="Zq42ExUFTo6MCloS8ueM-22" vertex="1">
          <mxGeometry x="120" y="20" width="30" height="60" as="geometry" />
        </mxCell>
        <mxCell id="FwsmiJd8IDW5yg_aFgd4-20" value="" style="edgeStyle=orthogonalEdgeStyle;rounded=0;orthogonalLoop=1;jettySize=auto;html=1;" parent="Zq42ExUFTo6MCloS8ueM-22" source="FwsmiJd8IDW5yg_aFgd4-17" target="FwsmiJd8IDW5yg_aFgd4-6" edge="1">
          <mxGeometry relative="1" as="geometry" />
        </mxCell>
        <mxCell id="FwsmiJd8IDW5yg_aFgd4-17" value="AirUmiditySensing" style="shape=umlActor;verticalLabelPosition=bottom;verticalAlign=top;html=1;" parent="Zq42ExUFTo6MCloS8ueM-22" vertex="1">
          <mxGeometry x="500" y="30" width="30" height="60" as="geometry" />
        </mxCell>
        <mxCell id="FwsmiJd8IDW5yg_aFgd4-23" style="edgeStyle=orthogonalEdgeStyle;rounded=0;orthogonalLoop=1;jettySize=auto;html=1;entryX=0.22;entryY=0.967;entryDx=0;entryDy=0;entryPerimeter=0;" parent="Zq42ExUFTo6MCloS8ueM-22" source="FwsmiJd8IDW5yg_aFgd4-21" target="FwsmiJd8IDW5yg_aFgd4-6" edge="1">
          <mxGeometry relative="1" as="geometry" />
        </mxCell>
        <mxCell id="FwsmiJd8IDW5yg_aFgd4-21" value="CO2ConcentrationSensing" style="shape=umlActor;verticalLabelPosition=bottom;verticalAlign=top;html=1;" parent="Zq42ExUFTo6MCloS8ueM-22" vertex="1">
          <mxGeometry x="120" y="170" width="30" height="60" as="geometry" />
        </mxCell>
        <mxCell id="FwsmiJd8IDW5yg_aFgd4-24" value="SoilUmiditySensing" style="shape=umlActor;verticalLabelPosition=bottom;verticalAlign=top;html=1;" parent="Zq42ExUFTo6MCloS8ueM-22" vertex="1">
          <mxGeometry x="460" y="170" width="30" height="60" as="geometry" />
        </mxCell>
        <mxCell id="FwsmiJd8IDW5yg_aFgd4-25" style="edgeStyle=orthogonalEdgeStyle;rounded=0;orthogonalLoop=1;jettySize=auto;html=1;entryX=0.714;entryY=1;entryDx=0;entryDy=0;entryPerimeter=0;" parent="Zq42ExUFTo6MCloS8ueM-22" source="FwsmiJd8IDW5yg_aFgd4-24" target="FwsmiJd8IDW5yg_aFgd4-6" edge="1">
          <mxGeometry relative="1" as="geometry" />
        </mxCell>
        <mxCell id="FwsmiJd8IDW5yg_aFgd4-36" value="TransmitData" style="shape=umlActor;verticalLabelPosition=bottom;verticalAlign=top;html=1;" parent="Zq42ExUFTo6MCloS8ueM-22" vertex="1">
          <mxGeometry x="305" y="250" width="30" height="60" as="geometry" />
        </mxCell>
        <mxCell id="Zq42ExUFTo6MCloS8ueM-31" value="" style="group" parent="1" vertex="1" connectable="0">
          <mxGeometry x="430" y="30" width="1343" height="470" as="geometry" />
        </mxCell>
        <mxCell id="Zq42ExUFTo6MCloS8ueM-24" value="" style="rounded=0;whiteSpace=wrap;html=1;" parent="Zq42ExUFTo6MCloS8ueM-31" vertex="1">
          <mxGeometry width="1343" height="470" as="geometry" />
        </mxCell>
        <mxCell id="Zq42ExUFTo6MCloS8ueM-18" style="edgeStyle=orthogonalEdgeStyle;rounded=0;orthogonalLoop=1;jettySize=auto;html=1;exitX=1;exitY=0.5;exitDx=0;exitDy=0;entryX=0;entryY=0.5;entryDx=0;entryDy=0;" parent="Zq42ExUFTo6MCloS8ueM-31" source="FwsmiJd8IDW5yg_aFgd4-42" target="Zq42ExUFTo6MCloS8ueM-17" edge="1">
          <mxGeometry relative="1" as="geometry" />
        </mxCell>
        <mxCell id="FwsmiJd8IDW5yg_aFgd4-42" value="&lt;h4&gt;act_L1_MonitorStove&lt;br&gt;&lt;/h4&gt;&lt;div&gt;Purpose:&lt;/div&gt;&lt;div&gt;Monitor stove by receiving data from external sensor and proving information.&lt;/div&gt;&lt;div&gt;&lt;br&gt;&lt;/div&gt;&lt;div&gt;Description:&lt;/div&gt;&lt;div&gt;&lt;br&gt;&lt;/div&gt;&lt;div&gt;&lt;br&gt;&lt;/div&gt;" style="html=1;whiteSpace=wrap;align=left;rotation=0;" parent="Zq42ExUFTo6MCloS8ueM-31" vertex="1">
          <mxGeometry x="876.5" y="60" width="140" height="380" as="geometry" />
        </mxCell>
        <mxCell id="FwsmiJd8IDW5yg_aFgd4-43" value="act_Input_AirUmiditySensing" style="html=1;whiteSpace=wrap;" parent="Zq42ExUFTo6MCloS8ueM-31" vertex="1">
          <mxGeometry x="416.5" y="150" width="150" height="50" as="geometry" />
        </mxCell>
        <mxCell id="FwsmiJd8IDW5yg_aFgd4-44" value="act_Input_LightSensing" style="html=1;whiteSpace=wrap;" parent="Zq42ExUFTo6MCloS8ueM-31" vertex="1">
          <mxGeometry x="616.5" y="80" width="150" height="50" as="geometry" />
        </mxCell>
        <mxCell id="Zq42ExUFTo6MCloS8ueM-14" style="edgeStyle=orthogonalEdgeStyle;rounded=0;orthogonalLoop=1;jettySize=auto;html=1;exitX=1;exitY=0.5;exitDx=0;exitDy=0;entryX=0;entryY=0.5;entryDx=0;entryDy=0;" parent="Zq42ExUFTo6MCloS8ueM-31" source="Zq42ExUFTo6MCloS8ueM-1" target="FwsmiJd8IDW5yg_aFgd4-42" edge="1">
          <mxGeometry relative="1" as="geometry" />
        </mxCell>
        <mxCell id="Zq42ExUFTo6MCloS8ueM-1" value="act_Input_SoilUmiditySensing" style="html=1;whiteSpace=wrap;" parent="Zq42ExUFTo6MCloS8ueM-31" vertex="1">
          <mxGeometry x="246.5" y="225" width="150" height="50" as="geometry" />
        </mxCell>
        <mxCell id="Zq42ExUFTo6MCloS8ueM-2" value="act_Input_CO2Sensing" style="html=1;whiteSpace=wrap;" parent="Zq42ExUFTo6MCloS8ueM-31" vertex="1">
          <mxGeometry x="56.5" y="300" width="150" height="50" as="geometry" />
        </mxCell>
        <mxCell id="Zq42ExUFTo6MCloS8ueM-9" style="edgeStyle=orthogonalEdgeStyle;rounded=0;orthogonalLoop=1;jettySize=auto;html=1;exitX=1;exitY=0.5;exitDx=0;exitDy=0;entryX=0.021;entryY=0.695;entryDx=0;entryDy=0;entryPerimeter=0;" parent="Zq42ExUFTo6MCloS8ueM-31" source="Zq42ExUFTo6MCloS8ueM-2" target="FwsmiJd8IDW5yg_aFgd4-42" edge="1">
          <mxGeometry relative="1" as="geometry" />
        </mxCell>
        <mxCell id="Zq42ExUFTo6MCloS8ueM-15" style="edgeStyle=orthogonalEdgeStyle;rounded=0;orthogonalLoop=1;jettySize=auto;html=1;exitX=1;exitY=0.5;exitDx=0;exitDy=0;entryX=0.004;entryY=0.117;entryDx=0;entryDy=0;entryPerimeter=0;" parent="Zq42ExUFTo6MCloS8ueM-31" source="FwsmiJd8IDW5yg_aFgd4-44" target="FwsmiJd8IDW5yg_aFgd4-42" edge="1">
          <mxGeometry relative="1" as="geometry" />
        </mxCell>
        <mxCell id="Zq42ExUFTo6MCloS8ueM-16" style="edgeStyle=orthogonalEdgeStyle;rounded=0;orthogonalLoop=1;jettySize=auto;html=1;exitX=1;exitY=0.5;exitDx=0;exitDy=0;entryX=-0.002;entryY=0.303;entryDx=0;entryDy=0;entryPerimeter=0;" parent="Zq42ExUFTo6MCloS8ueM-31" source="FwsmiJd8IDW5yg_aFgd4-43" target="FwsmiJd8IDW5yg_aFgd4-42" edge="1">
          <mxGeometry relative="1" as="geometry" />
        </mxCell>
        <mxCell id="Zq42ExUFTo6MCloS8ueM-17" value="act_Output_TransmitData" style="html=1;whiteSpace=wrap;" parent="Zq42ExUFTo6MCloS8ueM-31" vertex="1">
          <mxGeometry x="1136.5" y="225" width="150" height="50" as="geometry" />
        </mxCell>
        <mxCell id="Zq42ExUFTo6MCloS8ueM-26" value="" style="endArrow=none;dashed=1;html=1;rounded=0;" parent="Zq42ExUFTo6MCloS8ueM-31" edge="1">
          <mxGeometry width="50" height="50" relative="1" as="geometry">
            <mxPoint x="226.5" y="468" as="sourcePoint" />
            <mxPoint x="229.5" as="targetPoint" />
          </mxGeometry>
        </mxCell>
        <mxCell id="Zq42ExUFTo6MCloS8ueM-27" value="" style="endArrow=none;dashed=1;html=1;rounded=0;" parent="Zq42ExUFTo6MCloS8ueM-31" edge="1">
          <mxGeometry width="50" height="50" relative="1" as="geometry">
            <mxPoint x="402.5" y="468" as="sourcePoint" />
            <mxPoint x="405.5" as="targetPoint" />
          </mxGeometry>
        </mxCell>
        <mxCell id="Zq42ExUFTo6MCloS8ueM-28" value="" style="endArrow=none;dashed=1;html=1;rounded=0;" parent="Zq42ExUFTo6MCloS8ueM-31" edge="1">
          <mxGeometry width="50" height="50" relative="1" as="geometry">
            <mxPoint x="579.5" y="469" as="sourcePoint" />
            <mxPoint x="582.5" y="1" as="targetPoint" />
          </mxGeometry>
        </mxCell>
        <mxCell id="Zq42ExUFTo6MCloS8ueM-29" value="" style="endArrow=none;dashed=1;html=1;rounded=0;" parent="Zq42ExUFTo6MCloS8ueM-31" edge="1">
          <mxGeometry width="50" height="50" relative="1" as="geometry">
            <mxPoint x="796.5" y="470" as="sourcePoint" />
            <mxPoint x="799.5" y="2" as="targetPoint" />
          </mxGeometry>
        </mxCell>
        <mxCell id="Zq42ExUFTo6MCloS8ueM-30" value="" style="endArrow=none;dashed=1;html=1;rounded=0;" parent="Zq42ExUFTo6MCloS8ueM-31" edge="1">
          <mxGeometry width="50" height="50" relative="1" as="geometry">
            <mxPoint x="1076.5" y="470" as="sourcePoint" />
            <mxPoint x="1079.5" y="2" as="targetPoint" />
          </mxGeometry>
        </mxCell>
        <mxCell id="Zq42ExUFTo6MCloS8ueM-51" value="" style="group" parent="1" vertex="1" connectable="0">
          <mxGeometry x="100" y="774" width="1860" height="980" as="geometry" />
        </mxCell>
        <mxCell id="Zq42ExUFTo6MCloS8ueM-50" value="" style="rounded=0;whiteSpace=wrap;html=1;" parent="Zq42ExUFTo6MCloS8ueM-51" vertex="1">
          <mxGeometry width="1860" height="980" as="geometry" />
        </mxCell>
        <mxCell id="Zq42ExUFTo6MCloS8ueM-19" value="act_L2_ReadLightSensing" style="html=1;whiteSpace=wrap;" parent="Zq42ExUFTo6MCloS8ueM-51" vertex="1">
          <mxGeometry x="57" y="190" width="150" height="150" as="geometry" />
        </mxCell>
        <mxCell id="Zq42ExUFTo6MCloS8ueM-32" value="act_L2_ReadCO2Sensing" style="html=1;whiteSpace=wrap;" parent="Zq42ExUFTo6MCloS8ueM-51" vertex="1">
          <mxGeometry x="297" y="390" width="150" height="150" as="geometry" />
        </mxCell>
        <mxCell id="Zq42ExUFTo6MCloS8ueM-33" value="act_L2_ReadSoilUmidity" style="html=1;whiteSpace=wrap;" parent="Zq42ExUFTo6MCloS8ueM-51" vertex="1">
          <mxGeometry x="547" y="580" width="150" height="150" as="geometry" />
        </mxCell>
        <mxCell id="Zq42ExUFTo6MCloS8ueM-34" value="act_L2_ReadAirUmidity" style="html=1;whiteSpace=wrap;" parent="Zq42ExUFTo6MCloS8ueM-51" vertex="1">
          <mxGeometry x="817" y="770" width="150" height="150" as="geometry" />
        </mxCell>
        <mxCell id="Zq42ExUFTo6MCloS8ueM-43" style="edgeStyle=orthogonalEdgeStyle;rounded=0;orthogonalLoop=1;jettySize=auto;html=1;exitX=1;exitY=0.5;exitDx=0;exitDy=0;entryX=0;entryY=0.5;entryDx=0;entryDy=0;" parent="Zq42ExUFTo6MCloS8ueM-51" source="Zq42ExUFTo6MCloS8ueM-37" target="Zq42ExUFTo6MCloS8ueM-38" edge="1">
          <mxGeometry relative="1" as="geometry" />
        </mxCell>
        <mxCell id="Zq42ExUFTo6MCloS8ueM-37" value="&lt;font style=&quot;font-size: 16px;&quot;&gt;act_L2_SoilMonitoringProcessing&lt;/font&gt;" style="html=1;whiteSpace=wrap;" parent="Zq42ExUFTo6MCloS8ueM-51" vertex="1">
          <mxGeometry x="1130" y="50" width="250" height="910" as="geometry" />
        </mxCell>
        <mxCell id="Zq42ExUFTo6MCloS8ueM-38" value="act_L2_TransmitData" style="html=1;whiteSpace=wrap;" parent="Zq42ExUFTo6MCloS8ueM-51" vertex="1">
          <mxGeometry x="1670" y="430" width="150" height="150" as="geometry" />
        </mxCell>
        <mxCell id="Zq42ExUFTo6MCloS8ueM-39" style="edgeStyle=orthogonalEdgeStyle;rounded=0;orthogonalLoop=1;jettySize=auto;html=1;exitX=1;exitY=0.5;exitDx=0;exitDy=0;entryX=-0.001;entryY=0.235;entryDx=0;entryDy=0;entryPerimeter=0;" parent="Zq42ExUFTo6MCloS8ueM-51" source="Zq42ExUFTo6MCloS8ueM-19" target="Zq42ExUFTo6MCloS8ueM-37" edge="1">
          <mxGeometry relative="1" as="geometry" />
        </mxCell>
        <mxCell id="Zq42ExUFTo6MCloS8ueM-40" style="edgeStyle=orthogonalEdgeStyle;rounded=0;orthogonalLoop=1;jettySize=auto;html=1;exitX=1;exitY=0.5;exitDx=0;exitDy=0;entryX=-0.008;entryY=0.456;entryDx=0;entryDy=0;entryPerimeter=0;" parent="Zq42ExUFTo6MCloS8ueM-51" source="Zq42ExUFTo6MCloS8ueM-32" target="Zq42ExUFTo6MCloS8ueM-37" edge="1">
          <mxGeometry relative="1" as="geometry" />
        </mxCell>
        <mxCell id="Zq42ExUFTo6MCloS8ueM-41" style="edgeStyle=orthogonalEdgeStyle;rounded=0;orthogonalLoop=1;jettySize=auto;html=1;exitX=1;exitY=0.5;exitDx=0;exitDy=0;entryX=0.012;entryY=0.665;entryDx=0;entryDy=0;entryPerimeter=0;" parent="Zq42ExUFTo6MCloS8ueM-51" source="Zq42ExUFTo6MCloS8ueM-33" target="Zq42ExUFTo6MCloS8ueM-37" edge="1">
          <mxGeometry relative="1" as="geometry" />
        </mxCell>
        <mxCell id="Zq42ExUFTo6MCloS8ueM-42" style="edgeStyle=orthogonalEdgeStyle;rounded=0;orthogonalLoop=1;jettySize=auto;html=1;exitX=1;exitY=0.5;exitDx=0;exitDy=0;entryX=0.025;entryY=0.872;entryDx=0;entryDy=0;entryPerimeter=0;" parent="Zq42ExUFTo6MCloS8ueM-51" source="Zq42ExUFTo6MCloS8ueM-34" target="Zq42ExUFTo6MCloS8ueM-37" edge="1">
          <mxGeometry relative="1" as="geometry" />
        </mxCell>
        <mxCell id="Zq42ExUFTo6MCloS8ueM-44" value="" style="endArrow=none;dashed=1;html=1;rounded=0;" parent="Zq42ExUFTo6MCloS8ueM-51" edge="1">
          <mxGeometry width="50" height="50" relative="1" as="geometry">
            <mxPoint x="260" y="980" as="sourcePoint" />
            <mxPoint x="260" as="targetPoint" />
          </mxGeometry>
        </mxCell>
        <mxCell id="Zq42ExUFTo6MCloS8ueM-45" value="" style="endArrow=none;dashed=1;html=1;rounded=0;" parent="Zq42ExUFTo6MCloS8ueM-51" edge="1">
          <mxGeometry width="50" height="50" relative="1" as="geometry">
            <mxPoint x="510" y="980" as="sourcePoint" />
            <mxPoint x="510" as="targetPoint" />
          </mxGeometry>
        </mxCell>
        <mxCell id="Zq42ExUFTo6MCloS8ueM-46" value="" style="endArrow=none;dashed=1;html=1;rounded=0;" parent="Zq42ExUFTo6MCloS8ueM-51" edge="1">
          <mxGeometry width="50" height="50" relative="1" as="geometry">
            <mxPoint x="760" y="980" as="sourcePoint" />
            <mxPoint x="760" as="targetPoint" />
          </mxGeometry>
        </mxCell>
        <mxCell id="Zq42ExUFTo6MCloS8ueM-47" value="" style="endArrow=none;dashed=1;html=1;rounded=0;" parent="Zq42ExUFTo6MCloS8ueM-51" edge="1">
          <mxGeometry width="50" height="50" relative="1" as="geometry">
            <mxPoint x="1050" y="980" as="sourcePoint" />
            <mxPoint x="1050" as="targetPoint" />
          </mxGeometry>
        </mxCell>
        <mxCell id="Zq42ExUFTo6MCloS8ueM-48" value="" style="endArrow=none;dashed=1;html=1;rounded=0;" parent="Zq42ExUFTo6MCloS8ueM-51" edge="1">
          <mxGeometry width="50" height="50" relative="1" as="geometry">
            <mxPoint x="1520" y="980" as="sourcePoint" />
            <mxPoint x="1520" as="targetPoint" />
          </mxGeometry>
        </mxCell>
        <mxCell id="Zq42ExUFTo6MCloS8ueM-52" value="&lt;font style=&quot;font-size: 50px;&quot;&gt;act_L1_MonitorStove&lt;/font&gt;" style="text;html=1;align=center;verticalAlign=middle;whiteSpace=wrap;rounded=0;" parent="1" vertex="1">
          <mxGeometry x="310" y="730" width="60" height="30" as="geometry" />
        </mxCell>
        <mxCell id="Zq42ExUFTo6MCloS8ueM-53" value="" style="shape=flexArrow;endArrow=classic;html=1;rounded=0;fillColor=#ffe6cc;strokeColor=#d79b00;" parent="1" source="FwsmiJd8IDW5yg_aFgd4-42" edge="1">
          <mxGeometry width="50" height="50" relative="1" as="geometry">
            <mxPoint x="1320" y="590" as="sourcePoint" />
            <mxPoint x="1000" y="770" as="targetPoint" />
          </mxGeometry>
        </mxCell>
      </root>
    </mxGraphModel>
  </diagram>
</mxfile>
